#!OML:ASF H:\Dans Jumps\Project 1\Capture day 1\Session 1\subject.ASF
:FULLY-SPECIFIED
:DEGREES
443
root 0.274123 17.7961 -0.802045 9.50216 1.93394 -1.0394
lowerback -2.99176 -0.515242 0.0561394
upperback 2.35575 -0.738894 1.28283
thorax 4.12151 -0.385635 1.24317
lowerneck -11.4359 -0.291338 -2.0198
upperneck 35.1909 -0.251819 1.03189
head 13.8568 -0.236002 0.735991
rclavicle 4.62174e-015 3.57812e-015
rhumerus -24.5033 -11.6467 -82.2622
rradius 25.9928
rwrist 33.5603
rhand -23.1152 -27.7472
rfingers 7.12502
rthumb 3.33181 -57.7009
lclavicle 4.62174e-015 3.57812e-015
lhumerus -26.3806 -4.61481 90.172
lradius 21.1137
lwrist 16.5343
lhand -24.0468 -7.19332
lfingers 7.12502
lthumb 2.4322 22.7726
rfemur -12.9654 -2.89923 20.5012
rtibia 20.3374
rfoot -14.5236 -0.0497168
rtoes 17.2522
lfemur -10.1742 7.28753 -17.9775
ltibia 16.8211
lfoot -10.8588 3.60279
ltoes 7.01691
444
root 0.274344 17.7912 -0.802258 9.44708 1.93273 -1.05255
lowerback -3.00735 -0.530023 0.089172
upperback 2.36633 -0.760952 1.29482
thorax 4.14156 -0.395899 1.23542
lowerneck -11.4474 -0.270475 -2.01873
upperneck 35.204 -0.208179 0.994677
head 13.8644 -0.222052 0.727406
rclavicle 5.46658e-015 -1.33186e-014
rhumerus -24.5245 -11.7524 -82.2046
rradius 25.9139
rwrist 33.6487
rhand -23.1189 -27.7593
rfingers 7.12502
rthumb 3.32825 -57.7131
lclavicle 5.46658e-015 -1.33186e-014
lhumerus -26.1797 -4.6304 90.2213
lradius 21.1326
lwrist 16.4318
lhand -24.2038 -7.38713
lfingers 7.12502
lthumb 2.28056 22.5804
rfemur -12.9093 -2.8796 20.511
rtibia 20.3551
rfoot -14.5903 -0.0725527
rtoes 17.2867
lfemur -10.1062 7.26172 -17.9647
ltibia 16.8212
lfoot -10.9082 3.68576
ltoes 6.9962
445
root 0.274526 17.7869 -0.802502 9.39136 1.92579 -1.06181
lowerback -3.02483 -0.543028 0.111301
upperback 2.3753 -0.780159 1.30767
thorax 4.16111 -0.405065 1.23484
lowerneck -11.4598 -0.2487 -2.01294
upperneck 35.2283 -0.163835 0.955754
head 13.8773 -0.207463 0.717487
rclavicle 2.03754e-015 6.16232e-015
rhumerus -24.5463 -11.8879 -82.135
rradius 25.8233
rwrist 33.7587
rhand -23.1189 -27.7726
rfingers 7.12502
rthumb 3.3283 -57.7264
lclavicle 2.03754e-015 6.16232e-015
lhumerus -25.9736 -4.61331 90.2631
lradius 21.1301
lwrist 16.3254
lhand -24.3712 -7.60307
lfingers 7.12502
lthumb 2.11883 22.3662
rfemur -12.857 -2.87155 20.5161
rtibia 20.3759
rfoot -14.6465 -0.0770156
rtoes 17.2888
lfemur -10.0314 7.23173 -17.9555
ltibia 16.8109
lfoot -10.9479 3.77163
ltoes 6.96487
446
root 0.274619 17.783 -0.802801 9.33191 1.91406 -1.07671
lowerback -3.04073 -0.553796 0.132195
upperback 2.38443 -0.796424 1.3232
thorax 4.17991 -0.412844 1.23792
lowerneck -11.4734 -0.225029 -2.00091
upperneck 35.2627 -0.118232 0.916614
head 13.8951 -0.191597 0.706638
rclavicle -7.45443e-016 -1.70955e-014
rhumerus -24.569 -12.0474 -82.0566
rradius 25.723
rwrist 33.8823
rhand -23.1152 -27.7951
rfingers 7.12502
rthumb 3.33185 -57.7488
lclavicle -7.45443e-016 -1.70955e-014
lhumerus -25.7626 -4.56811 90.2969
lradius 21.1113
lwrist 16.2136
lhand -24.5329 -7.79165
lfingers 7.12502
lthumb 1.96269 22.1791
rfemur -12.8029 -2.87069 20.5272
rtibia 20.3964
rfoot -14.6935 -0.0693172
rtoes 17.2557
lfemur -9.94962 7.20223 -17.9385
ltibia 16.796
lfoot -10.9803 3.85561
ltoes 6.93194
447
root 0.27462 17.7797 -0.803019 9.27006 1.89554 -1.09648
lowerback -3.05914 -0.561724 0.151237
upperback 2.39575 -0.808952 1.34066
thorax 4.20241 -0.41886 1.24425
lowerneck -11.4948 -0.200705 -1.98147
upperneck 35.3076 -0.0732371 0.87684
head 13.9193 -0.175168 0.694214
rclavicle -5.96354e-015 9.14409e-015
rhumerus -24.586 -12.2387 -81.97
rradius 25.6074
rwrist 34.0292
rhand -23.1171 -27.8137
rfingers 7.12502
rthumb 3.33005 -57.7674
lclavicle -5.96354e-015 9.14409e-015
lhumerus -25.5465 -4.4946 90.3221
lradius 21.0797
lwrist 16.0861
lhand -24.6717 -7.91783
lfingers 7.12502
lthumb 1.82861 22.0541
rfemur -12.7471 -2.87441 20.5431
rtibia 20.4141
rfoot -14.7304 -0.0459668
rtoes 17.2384
lfemur -9.86493 7.18053 -17.9155
ltibia 16.7822
lfoot -11.0085 3.93421
ltoes 6.88715
448
root 0.274377 17.777 -0.803467 9.20879 1.87253 -1.1239
lowerback -3.07881 -0.567025 0.16994
upperback 2.40776 -0.818106 1.36091
thorax 4.2263 -0.423254 1.25385
lowerneck -11.5171 -0.176672 -1.95876
upperneck 35.355 -0.0310639 0.84146
head 13.9451 -0.158974 0.682574
rclavicle -4.96962e-015 1.17283e-014
rhumerus -24.595 -12.4542 -81.8779
rradius 25.4743
rwrist 34.1938
rhand -23.1213 -27.8266
rfingers 7.12502
rthumb 3.32599 -57.7804
lclavicle -4.96962e-015 1.17283e-014
lhumerus -25.3268 -4.40112 90.3405
lradius 21.0392
lwrist 15.9452
lhand -24.7852 -7.97422
lfingers 7.12502
lthumb 1.71898 21.9986
rfemur -12.69 -2.87501 20.5681
rtibia 20.4243
rfoot -14.7566 -0.0184298
rtoes 17.2165
lfemur -9.7869 7.16831 -17.8834
ltibia 16.7779
lfoot -11.0331 4.00505
ltoes 6.82925
449
root 0.273875 17.7748 -0.803936 9.14919 1.84633 -1.15819
lowerback -3.10174 -0.569475 0.189329
upperback 2.42016 -0.823607 1.38267
thorax 4.2524 -0.425839 1.26485
lowerneck -11.5398 -0.15388 -1.93103
upperneck 35.4016 0.00631776 0.81067
head 13.9706 -0.14358 0.671172
rclavicle -2.33572e-015 -4.37326e-015
rhumerus -24.5978 -12.6951 -81.7817
rradius 25.326
rwrist 34.3782
rhand -23.1307 -27.831
rfingers 7.12502
rthumb 3.31689 -57.785
lclavicle -2.33572e-015 -4.37326e-015
lhumerus -25.1095 -4.29595 90.3531
lradius 20.995
lwrist 15.7893
lhand -24.87 -7.97322
lfingers 7.12502
lthumb 1.6371 22.0002
rfemur -12.6325 -2.87166 20.6016
rtibia 20.4284
rfoot -14.7727 0.0114897
rtoes 17.2165
lfemur -9.71695 7.1695 -17.843
ltibia 16.7837
lfoot -11.0558 4.06401
ltoes 6.75793
450
root 0.273124 17.7732 -0.804621 9.0954 1.82065 -1.19158
lowerback -3.12696 -0.570522 0.203729
upperback 2.42881 -0.82694 1.40348
thorax 4.2759 -0.427463 1.27779
lowerneck -11.5557 -0.134999 -1.90996
upperneck 35.4424 0.0341639 0.795054
head 13.9922 -0.131153 0.665591
rclavicle -5.01931e-015 1.51076e-014
rhumerus -24.5994 -12.9552 -81.6826
rradius 25.1626
rwrist 34.5759
rhand -23.1337 -27.8317
rfingers 7.12502
rthumb 3.314 -57.7857
lclavicle -5.01931e-015 1.51076e-014
lhumerus -24.9021 -4.19116 90.3635
lradius 20.9494
lwrist 15.6297
lhand -24.9491 -7.97728
lfingers 7.12502
lthumb 1.56077 21.9968
rfemur -12.5786 -2.86821 20.6357
rtibia 20.4267
rfoot -14.7808 0.0419345
rtoes 17.2428
lfemur -9.66053 7.18207 -17.8033
ltibia 16.8001
lfoot -11.076 4.10845
ltoes 6.68395
451
root 0.272116 17.7722 -0.805434 9.04899 1.79478 -1.21512
lowerback -3.15612 -0.57184 0.20457
upperback 2.43238 -0.829814 1.42109
thorax 4.29652 -0.429197 1.29507
lowerneck -11.5593 -0.119323 -1.90033
upperneck 35.4734 0.0536479 0.797405
head 14.0067 -0.121439 0.667949
rclavicle 1.13804e-014 -2.5842e-015
rhumerus -24.6062 -13.2223 -81.5833
rradius 24.9924
rwrist 34.782
rhand -23.1331 -27.8257
rfingers 7.12502
rthumb 3.31459 -57.7796
lclavicle 1.13804e-014 -2.5842e-015
lhumerus -24.7104 -4.09662 90.3745
lradius 20.9056
lwrist 15.4817
lhand -25.0232 -7.99859
lfingers 7.12502
lthumb 1.4892 21.976
rfemur -12.5327 -2.867 20.6606
rtibia 20.4243
rfoot -14.7827 0.0728886
rtoes 17.2718
lfemur -9.61529 7.20479 -17.7744
ltibia 16.8197
lfoot -11.0913 4.13816
ltoes 6.61328
